# xmcd CD database file
#
# Track frame offsets:
#	150
#	4425
#	17140
#	26065
#	35955
#	44055
#	48135
#	55875
#	67840
#	87800
#	94775
#	116235
#	129705
#	145925
#	155160
#	163175
#	167130
#	175185
#
# Disc length: 2699 seconds
#
# Revision: 1
# Processed by: cddbd v1.5.2PL0 Copyright (c) Steve Scherf et al.
# Submitted via: CDex 1.70beta2
#
DISCID=030a8912
DTITLE=Morze - Dzwieki Natury
DYEAR=1998
DGENRE=New Age
TTITLE0=Spiewy mew przy brzegu morza
TTITLE1=Spiewy mew i innych morskich ptakow
TTITLE2=Dalej od brzegu
TTITLE3=Silny wiatr i fale
TTITLE4=Powrot do brzegu
TTITLE5=Nad brzegiem
TTITLE6=Mewy smieszki i ich figle
TTITLE7=Na ladzie przy morzu
TTITLE8=Ptaki zyjace na mokradłach
TTITLE9=Las w poblizu morza
TTITLE10=Mokradla w lesie
TTITLE11=Powrot nad morze
TTITLE12=Pod powierzchnia morza I
TTITLE13=Pod powierzchnia morza II
TTITLE14=Pod powierzchnia morza III
TTITLE15=Pod powierzchnia morza IV
TTITLE16=Nad powierzchnia morza
TTITLE17=W poblizu brzegu
EXTD=YEAR: 1998
EXTT0=
EXTT1=
EXTT2=
EXTT3=
EXTT4=
EXTT5=
EXTT6=
EXTT7=
EXTT8=
EXTT9=
EXTT10=
EXTT11=
EXTT12=
EXTT13=
EXTT14=
EXTT15=
EXTT16=
EXTT17=
PLAYORDER=
